# xmcd
#
# Track frame offsets: 
#        150
#        13089
#        26025
#        42045
#        53603
#        67920
#        83334
#        93552
#        109172
#        123045
#        137990
#        149976
#        162970
#        177328
#
# Disc length: 2548 seconds
#
# Revision: 0
# Processed by: cddbd v1.5.2PL0 Copyright (c) Steve Scherf et al.
# Submitted via: ExactAudioCopyFreeDBPlugin 1.0
#
DISCID=b909f20e
DTITLE=Blue Mountain Ranch Hands - Steal the Show
DYEAR=2010
DGENRE=
TTITLE0=Idaho
TTITLE1=Right or Wrong
TTITLE2=Steal the Show
TTITLE3=Bud's Bounce
TTITLE4=Roly Poly
TTITLE5=My Adobe Hacienda
TTITLE6=Kansas City Kitty
TTITLE7=Wahoo
TTITLE8=Ride the Prairie
TTITLE9=Sugar Moon
TTITLE10=You Can't Break My Heart
TTITLE11=Boot Heel Drag
TTITLE12=I'll Keep on Loving You
TTITLE13=Across the Alley from the Alamo
EXTD=
EXTT0=
EXTT1=
EXTT2=
EXTT3=
EXTT4=
EXTT5=
EXTT6=
EXTT7=
EXTT8=
EXTT9=
EXTT10=
EXTT11=
EXTT12=
EXTT13=
PLAYORDER=
